<svg width="383" height="51" viewBox="0 0 383 51" fill="none" xmlns="http://www.w3.org/2000/svg">
<g clip-path="url(#clip0_23_691)">
<path d="M30.1019 10.7681H15.301H0.5V25.2869H15.301H25.7686V35.5551V50.074H40.5695V35.5551V21.0317H30.1019V10.7681Z" fill="white"/>
<path d="M15.301 35.5552H0.5V50.074H15.301V35.5552Z" fill="white"/>
<path d="M40.5684 0.500696L30.1025 10.7671L40.5684 21.0335L51.0343 10.7671L40.5684 0.500696Z" fill="white"/>
<path d="M74.8066 50.1681H102.301V44.7964H80.7901V33.4431H99.8147V28.1252H80.7901V16.3864H102.301V11.0146H74.8066V50.1681Z" fill="white"/>
<path d="M114.159 11.0146H108.344V50.1681H114.159V11.0146Z" fill="white"/>
<path d="M144.615 25.1927C143.504 23.7892 142.101 22.6727 140.41 21.8432C138.714 21.0137 136.721 20.5967 134.426 20.5967C131.414 20.5967 128.845 21.2424 126.719 22.5337C124.594 23.8251 122.976 25.6007 121.865 27.8516C120.754 30.1026 120.201 32.7077 120.201 35.6626C120.201 38.6175 120.736 41.1554 121.81 43.3884C122.884 45.6213 124.47 47.3656 126.582 48.6211C128.69 49.8766 131.304 50.5043 134.431 50.5043C136.387 50.5043 138.261 50.2084 140.049 49.6165C141.836 49.0246 143.363 48.092 144.62 46.8185C145.881 45.5451 146.754 43.9309 147.243 41.9714H141.37C141.068 42.8234 140.551 43.5139 139.815 44.0475C139.079 44.5856 138.252 44.9712 137.333 45.2088C136.41 45.451 135.459 45.5675 134.481 45.5675C132.712 45.5675 131.226 45.2088 130.02 44.4869C128.813 43.765 127.885 42.7965 127.227 41.5813C126.569 40.3617 126.18 39.0166 126.07 37.5369H147.582C147.618 37.1288 147.655 36.7432 147.696 36.3755C147.732 36.0079 147.751 35.6178 147.751 35.2142C147.824 33.3668 147.6 31.5867 147.074 29.8694C146.549 28.1521 145.726 26.5917 144.62 25.1882L144.615 25.1927ZM126.185 32.9992C126.299 31.6719 126.665 30.4433 127.286 29.3179C127.908 28.1924 128.79 27.2777 129.942 26.5782C131.089 25.8787 132.529 25.5245 134.262 25.5245C135.843 25.5245 137.196 25.8473 138.325 26.493C139.454 27.1387 140.337 28.0265 140.976 29.152C141.616 30.2774 141.955 31.5598 141.991 32.9992H126.185Z" fill="white"/>
<path d="M165.532 45.0161L156.952 20.9824H150.457L161.583 50.1681H169.486L180.607 20.9824H174.057L165.532 45.0161Z" fill="white"/>
<path d="M196.812 20.5923C195.418 20.5923 194.055 20.7492 192.716 21.0631C191.381 21.377 190.129 21.8657 188.963 22.5293C187.798 23.1929 186.819 24.0359 186.029 25.0493C185.238 26.0671 184.73 27.2733 184.506 28.6768H190.604C190.828 27.9369 191.244 27.3495 191.848 26.9056C192.451 26.4617 193.173 26.1389 194.019 25.9371C194.864 25.7353 195.76 25.6322 196.702 25.6322C198.284 25.6322 199.554 25.9371 200.514 26.5469C201.474 27.1567 202.178 28.0042 202.631 29.0938C203.083 30.1834 203.307 31.4478 203.307 32.8871H196.025C194.371 32.8871 192.78 33.0261 191.253 33.3042C189.731 33.5822 188.383 34.044 187.217 34.6897C186.051 35.3354 185.119 36.2411 184.424 37.4024C183.729 38.5638 183.377 40.0345 183.377 41.8056C183.377 43.2808 183.67 44.5677 184.255 45.6528C184.84 46.7424 185.617 47.6482 186.6 48.3656C187.578 49.0875 188.698 49.6211 189.96 49.9708C191.221 50.3206 192.529 50.4954 193.882 50.4954C194.86 50.4954 195.934 50.4013 197.1 50.2174C198.265 50.0336 199.445 49.6435 200.628 49.0561C201.812 48.4642 202.841 47.5988 203.705 46.4554L203.929 50.1681H208.952V34.3848C208.952 30.1026 208.002 26.7352 206.1 24.2781C204.198 21.8209 201.104 20.5968 196.812 20.5968V20.5923ZM203.303 38.4831C203.303 39.9583 202.946 41.2451 202.228 42.3302C201.511 43.4198 200.514 44.2494 199.234 44.8233C197.954 45.3972 196.469 45.6797 194.773 45.6797C193.831 45.6797 192.926 45.5228 192.062 45.2089C191.194 44.895 190.499 44.4242 189.973 43.7965C189.448 43.1687 189.183 42.3571 189.183 41.3617C189.183 40.3663 189.439 39.5323 189.946 38.9808C190.453 38.4248 191.13 38.0302 191.98 37.7881C192.826 37.5504 193.767 37.4024 194.805 37.3441C195.838 37.2903 196.903 37.259 197.996 37.259H203.303V38.4786V38.4831Z" fill="white"/>
<path d="M230.769 44.9085C230.111 45.2044 229.348 45.3524 228.484 45.3524C227.355 45.3165 226.486 45.0565 225.888 44.5767C225.284 44.0969 224.882 43.4333 224.672 42.5813C224.466 41.7339 224.361 40.7923 224.361 39.7565V26.0761H233.453V20.9824H224.361V12.5078H218.546V20.9824H213.802V26.0761H218.546V40.6981C218.546 43.801 219.232 46.2088 220.608 47.9262C221.979 49.6435 224.269 50.4999 227.469 50.4999C228.333 50.4999 229.183 50.4237 230.011 50.2802C230.838 50.1322 231.638 49.8856 232.41 49.5314C233.183 49.1817 233.923 48.7288 234.641 48.1728L232.383 43.9086C231.967 44.2763 231.432 44.6126 230.774 44.904L230.769 44.9085Z" fill="white"/>
<path d="M262.104 25.1927C260.993 23.7892 259.59 22.6727 257.898 21.8432C256.203 21.0137 254.21 20.5967 251.915 20.5967C248.903 20.5967 246.334 21.2424 244.208 22.5337C242.083 23.8251 240.465 25.6007 239.354 27.8516C238.243 30.1026 237.69 32.7077 237.69 35.6626C237.69 38.6175 238.225 41.1554 239.299 43.3884C240.373 45.6213 241.959 47.3656 244.071 48.6211C246.178 49.8766 248.793 50.5043 251.92 50.5043C253.876 50.5043 255.75 50.2084 257.537 49.6165C259.325 49.0246 260.851 48.092 262.108 46.8185C263.37 45.5451 264.243 43.9309 264.732 41.9714H258.858C258.557 42.8234 258.04 43.5139 257.304 44.0475C256.568 44.5856 255.741 44.9712 254.822 45.2088C253.899 45.451 252.948 45.5675 251.97 45.5675C250.201 45.5675 248.715 45.2088 247.508 44.4869C246.302 43.765 245.374 42.7965 244.716 41.5813C244.057 40.3617 243.669 39.0166 243.559 37.5369H265.07C265.107 37.1288 265.143 36.7432 265.185 36.3755C265.221 36.0079 265.239 35.6178 265.239 35.2142C265.313 33.3668 265.089 31.5867 264.563 29.8694C264.037 28.1521 263.215 26.5917 262.108 25.1882L262.104 25.1927ZM243.669 32.9992C243.783 31.6719 244.149 30.4433 244.77 29.3179C245.392 28.1924 246.274 27.2777 247.426 26.5782C248.574 25.8787 250.013 25.5245 251.746 25.5245C253.327 25.5245 254.68 25.8473 255.809 26.493C256.938 27.1387 257.821 28.0265 258.461 29.152C259.101 30.2774 259.439 31.5598 259.475 32.9992H243.669Z" fill="white"/>
<path d="M293.383 22.3947C291.747 21.1975 289.498 20.5967 286.637 20.5967C285.508 20.5967 284.342 20.7536 283.135 21.0675C281.928 21.3814 280.799 21.8611 279.748 22.5068C278.692 23.1525 277.792 24.0134 277.037 25.0806L276.754 20.9823H271.223V50.168H277.037V36.4876C277.037 34.4564 277.357 32.6315 277.997 31.0038C278.637 29.3806 279.579 28.0893 280.822 27.1252C282.066 26.1657 283.588 25.6859 285.393 25.6859C286.861 25.6859 288.026 25.9549 288.895 26.4885C289.759 27.0221 290.426 27.744 290.897 28.6498C291.368 29.5555 291.678 30.5778 291.829 31.7212C291.98 32.8646 292.053 34.0305 292.053 35.2097V50.1635H297.927V34.0484C297.927 31.5015 297.58 29.2237 296.88 27.2104C296.185 25.1972 295.015 23.5919 293.379 22.3902L293.383 22.3947Z" fill="white"/>
<path d="M326.043 22.5068C323.9 21.2334 321.28 20.5967 318.195 20.5967C315.11 20.5967 312.49 21.2334 310.346 22.5068C308.203 23.7803 306.562 25.5335 305.433 27.7664C304.304 29.9994 303.737 32.6135 303.737 35.6043C303.737 38.5951 304.29 41.1599 305.401 43.4153C306.511 45.6662 308.139 47.4104 310.283 48.648C312.426 49.8855 315.046 50.5043 318.131 50.5043C321.216 50.5043 323.881 49.8855 326.007 48.648C328.132 47.4104 329.75 45.6662 330.861 43.4153C331.972 41.1643 332.525 38.5771 332.525 35.6626C332.525 32.7481 331.981 30.0487 330.889 27.7978C329.796 25.5469 328.178 23.7847 326.034 22.5113L326.043 22.5068ZM325.874 40.5052C325.271 41.9983 324.338 43.1911 323.081 44.0789C321.82 44.9667 320.174 45.4061 318.14 45.4061C316.106 45.4061 314.506 44.9622 313.226 44.0789C311.946 43.1911 311.014 42.0118 310.433 40.5321C309.848 39.0569 309.56 37.4113 309.56 35.6043C309.56 33.7973 309.853 32.2055 310.433 30.7303C311.018 29.2551 311.946 28.0624 313.226 27.1566C314.506 26.2509 316.143 25.798 318.14 25.798C320.138 25.798 321.82 26.2509 323.081 27.1566C324.343 28.0624 325.275 29.2506 325.874 30.7303C326.478 32.2055 326.779 33.8332 326.779 35.6043C326.779 37.3754 326.478 39.0121 325.874 40.5052Z" fill="white"/>
<path d="M376.009 20.9824L369.573 44.1866L362.684 20.9824H355.403L348.514 44.1866L341.964 20.9824H335.473L344.729 50.1681H352.125L358.959 27.8518L365.848 50.1681H373.243L382.5 20.9824H376.009Z" fill="white"/>
</g>
<defs>
<clipPath id="clip0_23_691">
<rect width="382" height="50" fill="white" transform="translate(0.5 0.5)"/>
</clipPath>
</defs>
</svg>
